<mxfile host="app.diagrams.net" agent="Mozilla/5.0 (Windows NT 10.0; Win64; x64) AppleWebKit/537.36 (KHTML, like Gecko) Chrome/136.0.0.0 Safari/537.36" version="27.0.6">
  <diagram name="第 1 页" id="bDFXNYB2v2AE07_PYqpr">
    <mxGraphModel dx="1489" dy="2026" grid="1" gridSize="10" guides="1" tooltips="1" connect="1" arrows="1" fold="1" page="1" pageScale="1" pageWidth="827" pageHeight="1169" math="0" shadow="0">
      <root>
        <mxCell id="0" />
        <mxCell id="1" parent="0" />
        <mxCell id="6-Gtksee_l39-dPfnhdo-1" value="启动文档编辑" style="whiteSpace=wrap;strokeWidth=2;" vertex="1" parent="1">
          <mxGeometry x="316" y="-190" width="156" height="54" as="geometry" />
        </mxCell>
        <mxCell id="6-Gtksee_l39-dPfnhdo-23" style="edgeStyle=orthogonalEdgeStyle;rounded=0;orthogonalLoop=1;jettySize=auto;html=1;entryX=0.5;entryY=0;entryDx=0;entryDy=0;" edge="1" parent="1" source="6-Gtksee_l39-dPfnhdo-2" target="6-Gtksee_l39-dPfnhdo-10">
          <mxGeometry relative="1" as="geometry" />
        </mxCell>
        <mxCell id="6-Gtksee_l39-dPfnhdo-24" style="edgeStyle=orthogonalEdgeStyle;rounded=0;orthogonalLoop=1;jettySize=auto;html=1;entryX=0.5;entryY=0;entryDx=0;entryDy=0;" edge="1" parent="1" source="6-Gtksee_l39-dPfnhdo-2" target="6-Gtksee_l39-dPfnhdo-9">
          <mxGeometry relative="1" as="geometry" />
        </mxCell>
        <mxCell id="6-Gtksee_l39-dPfnhdo-25" style="edgeStyle=orthogonalEdgeStyle;rounded=0;orthogonalLoop=1;jettySize=auto;html=1;entryX=0.5;entryY=0;entryDx=0;entryDy=0;" edge="1" parent="1" source="6-Gtksee_l39-dPfnhdo-2" target="6-Gtksee_l39-dPfnhdo-3">
          <mxGeometry relative="1" as="geometry" />
        </mxCell>
        <mxCell id="6-Gtksee_l39-dPfnhdo-2" value="文档锁定状态" style="rhombus;strokeWidth=2;whiteSpace=wrap;" vertex="1" parent="1">
          <mxGeometry x="319" y="-116" width="150" height="56" as="geometry" />
        </mxCell>
        <mxCell id="6-Gtksee_l39-dPfnhdo-3" value="获取编辑权限" style="whiteSpace=wrap;strokeWidth=2;" vertex="1" parent="1">
          <mxGeometry x="120" y="-40" width="156" height="54" as="geometry" />
        </mxCell>
        <mxCell id="6-Gtksee_l39-dPfnhdo-4" value="进行内容修改" style="whiteSpace=wrap;strokeWidth=2;" vertex="1" parent="1">
          <mxGeometry x="232" y="90" width="156" height="54" as="geometry" />
        </mxCell>
        <mxCell id="6-Gtksee_l39-dPfnhdo-33" value="" style="edgeStyle=orthogonalEdgeStyle;rounded=0;orthogonalLoop=1;jettySize=auto;html=1;" edge="1" parent="1" source="6-Gtksee_l39-dPfnhdo-5" target="6-Gtksee_l39-dPfnhdo-32">
          <mxGeometry relative="1" as="geometry" />
        </mxCell>
        <mxCell id="6-Gtksee_l39-dPfnhdo-5" value="确认保存" style="rhombus;strokeWidth=2;whiteSpace=wrap;" vertex="1" parent="1">
          <mxGeometry x="221" y="170" width="180" height="60" as="geometry" />
        </mxCell>
        <mxCell id="6-Gtksee_l39-dPfnhdo-6" value="保存修改" style="whiteSpace=wrap;strokeWidth=2;" vertex="1" parent="1">
          <mxGeometry x="248" y="260" width="124" height="54" as="geometry" />
        </mxCell>
        <mxCell id="6-Gtksee_l39-dPfnhdo-7" value="释放编辑锁" style="whiteSpace=wrap;strokeWidth=2;" vertex="1" parent="1">
          <mxGeometry x="240" y="345" width="140" height="54" as="geometry" />
        </mxCell>
        <mxCell id="6-Gtksee_l39-dPfnhdo-35" value="" style="edgeStyle=orthogonalEdgeStyle;rounded=0;orthogonalLoop=1;jettySize=auto;html=1;" edge="1" parent="1" source="6-Gtksee_l39-dPfnhdo-8" target="6-Gtksee_l39-dPfnhdo-34">
          <mxGeometry relative="1" as="geometry" />
        </mxCell>
        <mxCell id="6-Gtksee_l39-dPfnhdo-8" value="显示保存成功" style="whiteSpace=wrap;strokeWidth=2;" vertex="1" parent="1">
          <mxGeometry x="232" y="430" width="156" height="54" as="geometry" />
        </mxCell>
        <mxCell id="6-Gtksee_l39-dPfnhdo-9" value="延长编辑时间" style="whiteSpace=wrap;strokeWidth=2;" vertex="1" parent="1">
          <mxGeometry x="316" y="-30" width="156" height="54" as="geometry" />
        </mxCell>
        <mxCell id="6-Gtksee_l39-dPfnhdo-10" value="提示文档占用" style="whiteSpace=wrap;strokeWidth=2;" vertex="1" parent="1">
          <mxGeometry x="504" y="-30" width="156" height="54" as="geometry" />
        </mxCell>
        <mxCell id="6-Gtksee_l39-dPfnhdo-11" value="" style="curved=1;startArrow=none;endArrow=block;exitX=0.5;exitY=1;entryX=0.5;entryY=0;rounded=0;" edge="1" parent="1" source="6-Gtksee_l39-dPfnhdo-1" target="6-Gtksee_l39-dPfnhdo-2">
          <mxGeometry relative="1" as="geometry">
            <Array as="points" />
          </mxGeometry>
        </mxCell>
        <mxCell id="6-Gtksee_l39-dPfnhdo-14" value="" style="curved=1;startArrow=none;endArrow=block;exitX=0.5;exitY=1.01;entryX=0.5;entryY=0;rounded=0;" edge="1" parent="1" source="6-Gtksee_l39-dPfnhdo-4" target="6-Gtksee_l39-dPfnhdo-5">
          <mxGeometry relative="1" as="geometry">
            <Array as="points" />
          </mxGeometry>
        </mxCell>
        <mxCell id="6-Gtksee_l39-dPfnhdo-15" value="是" style="curved=1;startArrow=none;endArrow=block;exitX=0.5;exitY=1;entryX=0.5;entryY=0;rounded=0;" edge="1" parent="1" source="6-Gtksee_l39-dPfnhdo-5" target="6-Gtksee_l39-dPfnhdo-6">
          <mxGeometry relative="1" as="geometry">
            <Array as="points" />
          </mxGeometry>
        </mxCell>
        <mxCell id="6-Gtksee_l39-dPfnhdo-16" value="" style="curved=1;startArrow=none;endArrow=block;exitX=0.5;exitY=1;entryX=0.5;entryY=0;rounded=0;" edge="1" parent="1" source="6-Gtksee_l39-dPfnhdo-6" target="6-Gtksee_l39-dPfnhdo-7">
          <mxGeometry relative="1" as="geometry">
            <Array as="points" />
          </mxGeometry>
        </mxCell>
        <mxCell id="6-Gtksee_l39-dPfnhdo-17" value="" style="curved=1;startArrow=none;endArrow=block;exitX=0.5;exitY=1;entryX=0.5;entryY=0;rounded=0;" edge="1" parent="1" source="6-Gtksee_l39-dPfnhdo-7" target="6-Gtksee_l39-dPfnhdo-8">
          <mxGeometry relative="1" as="geometry">
            <Array as="points" />
          </mxGeometry>
        </mxCell>
        <mxCell id="6-Gtksee_l39-dPfnhdo-22" value="" style="edgeStyle=orthogonalEdgeStyle;rounded=0;orthogonalLoop=1;jettySize=auto;html=1;" edge="1" parent="1" source="6-Gtksee_l39-dPfnhdo-21" target="6-Gtksee_l39-dPfnhdo-1">
          <mxGeometry relative="1" as="geometry" />
        </mxCell>
        <mxCell id="6-Gtksee_l39-dPfnhdo-21" value="开始" style="strokeWidth=2;html=1;shape=mxgraph.flowchart.terminator;whiteSpace=wrap;" vertex="1" parent="1">
          <mxGeometry x="344" y="-270" width="100" height="60" as="geometry" />
        </mxCell>
        <mxCell id="6-Gtksee_l39-dPfnhdo-26" value="被他人锁定" style="text;html=1;align=center;verticalAlign=middle;resizable=0;points=[];autosize=1;strokeColor=none;fillColor=none;" vertex="1" parent="1">
          <mxGeometry x="500" y="-122" width="80" height="30" as="geometry" />
        </mxCell>
        <mxCell id="6-Gtksee_l39-dPfnhdo-27" value="被自己" style="text;html=1;align=center;verticalAlign=middle;resizable=0;points=[];autosize=1;strokeColor=none;fillColor=none;" vertex="1" parent="1">
          <mxGeometry x="384" y="-60" width="60" height="30" as="geometry" />
        </mxCell>
        <mxCell id="6-Gtksee_l39-dPfnhdo-29" value="未锁定" style="text;html=1;align=center;verticalAlign=middle;resizable=0;points=[];autosize=1;strokeColor=none;fillColor=none;" vertex="1" parent="1">
          <mxGeometry x="230" y="-132" width="60" height="30" as="geometry" />
        </mxCell>
        <mxCell id="6-Gtksee_l39-dPfnhdo-30" style="edgeStyle=orthogonalEdgeStyle;rounded=0;orthogonalLoop=1;jettySize=auto;html=1;entryX=0.429;entryY=0.081;entryDx=0;entryDy=0;entryPerimeter=0;" edge="1" parent="1" source="6-Gtksee_l39-dPfnhdo-3" target="6-Gtksee_l39-dPfnhdo-4">
          <mxGeometry relative="1" as="geometry" />
        </mxCell>
        <mxCell id="6-Gtksee_l39-dPfnhdo-31" style="edgeStyle=orthogonalEdgeStyle;rounded=0;orthogonalLoop=1;jettySize=auto;html=1;entryX=0.44;entryY=0.067;entryDx=0;entryDy=0;entryPerimeter=0;" edge="1" parent="1" source="6-Gtksee_l39-dPfnhdo-9" target="6-Gtksee_l39-dPfnhdo-4">
          <mxGeometry relative="1" as="geometry" />
        </mxCell>
        <mxCell id="6-Gtksee_l39-dPfnhdo-32" value="继续锁定文档" style="whiteSpace=wrap;html=1;strokeWidth=2;" vertex="1" parent="1">
          <mxGeometry x="450" y="170" width="120" height="60" as="geometry" />
        </mxCell>
        <mxCell id="6-Gtksee_l39-dPfnhdo-34" value="结束" style="strokeWidth=2;html=1;shape=mxgraph.flowchart.terminator;whiteSpace=wrap;" vertex="1" parent="1">
          <mxGeometry x="469" y="427" width="100" height="60" as="geometry" />
        </mxCell>
        <mxCell id="6-Gtksee_l39-dPfnhdo-36" value="否" style="text;html=1;align=center;verticalAlign=middle;resizable=0;points=[];autosize=1;strokeColor=none;fillColor=none;" vertex="1" parent="1">
          <mxGeometry x="400" y="168" width="40" height="30" as="geometry" />
        </mxCell>
      </root>
    </mxGraphModel>
  </diagram>
</mxfile>
